/* XPM */
static char *result[] = {
/* columns rows colors chars-per-pixel */
"40 40 70 1 ",
"  c #674341",
". c #6C4545",
"X c #6C4947",
"o c #6E4B49",
"O c #734546",
"+ c #704847",
"@ c #744748",
"# c #744D4B",
"$ c #7A4D4C",
"% c #76514E",
"& c #7A514F",
"* c #775350",
"= c #7D5451",
"- c #745950",
"; c #7C5B54",
": c #7F6056",
"> c #804E4E",
", c #81504F",
"< c #844F50",
"1 c #835553",
"2 c #895655",
"3 c #845956",
"4 c #895957",
"5 c #865B58",
"6 c #8C5B59",
"7 c #925E5C",
"8 c #816157",
"9 c #84645A",
"0 c #8C635C",
"q c #8C695F",
"w c #93605E",
"e c #98615F",
"r c #846C61",
"t c #8B6E62",
"y c #956461",
"u c #936C62",
"i c #877164",
"p c #8B7266",
"a c #8E7569",
"s c #927465",
"d c #9F7167",
"f c #93756A",
"g c #9B766A",
"h c #957A6E",
"j c #9B7B6B",
"k c #957D74",
"l c #9B7E76",
"z c #A1766B",
"x c #A27C6E",
"c c #A47D72",
"v c #93806F",
"b c #9F806F",
"n c #9C8277",
"m c #9D8479",
"M c #A38173",
"N c #AC8275",
"B c #A3857B",
"V c #A9867E",
"C c #A5897D",
"Z c #AA8A7E",
"A c #B08276",
"S c #B1857A",
"D c #AA907C",
"F c #AB8681",
"G c #A68A80",
"H c #A98980",
"J c #B18A85",
"K c #AA9683",
"L c #B29B88",
"P c #B9988A",
/* pixels */
"PBJJJBBVBVllMBlFBFMmMllFmMFFFllkVFmlmVcC",
"d>22>><$#$1>1$111#$$>$&1&426<@O#2,$$<,@9",
"c2y6*3,#*3666353=%=3343377553=364w641=#q",
"S772=1$4643212*11*;*#$<2777512117w4%$=1u",
"S3344,1=#*624616=5643164677=3362==&@166u",
"c1661**%***1=*62=676134377132662=&23462q",
"x27=#o&***12=33&66565=&372151=1*#$66316q",
"x11*oo%*%*1226$=46642=124165*$%#X16&$24w",
"z<=*%*=====545241362151$266*#1**=1114=*9",
"x<51;o*3;o$64=1166766*@1611*=1;=36763=5y",
"A26=XX*=*#$1##&34364&X&1=5*=*31*14242=1t",
"g1=#*;=1*o1*&*=15462#=4361*3==#*&&3<&1=r",
"z<$#=;1*#=$#737251w6&11=4*151#**$1=1151q",
"z@13%o$351#3w7665=4+#%o*1;61**=$11136w$0",
"g<64*1153*3676363;3=%%*3=4Xo%=*=344701#y",
"j*62273=11677626=31%o#1%=o#3*=36=676%#*9",
"g&7242131674646451#*###*=$5=541*=w=1=;$9",
"c3661=441wye6ww665*=#o*5=1655;3*6;=====0",
"z@$>$$$##$1>1>$@O$@#.$#++*1@X.O@@.#X.$$3",
"Ztpffpffpafffffifaarrpphappttpaappaaiiik",
"mZCmnBmVZVZCBnBMnnMKLmBlmGCmmCmmGFmklGGG",
"$,#.$$$,$1>O#O@.@<Oqf.$&1=$ $+@$$$X @1<@",
"36147477663==6*=30&jM16y653#;**=53=*50;=",
"34&46143262131%*3*.gc$03;=@*5=*=56=*33==",
"0*&=&266w3<=11#=*#Xsc104*#=1%=*30=*395==",
"=1#=13276111=1=&=1=jc31$*=3#*3555==673;5",
"3*#&167763*@373=561gj$%*%=*#*=535;565=;=",
"1&X&17661*#*1212661uj$3*35%=60333=;53===",
"1&#*44145*#*166236&sN2436*=416561=3==33*",
"=$=14=653%*;#&&&77&dc$==*1**#67617431==&",
"#&*163;=3=**o@17w4$gj@6=#=**377211=1===1",
"=3==56636**1$14w74$sj<7=*==&323111131*41",
"$=$&41356&11116w1,#tb$11%14=&&&&4&1;=33=",
"=117143&4&1,&1w1=4@ib$5&&47&&3411341=14=",
"1346&64141113=&#*&$jj#&467&#1,2666=1=10=",
"1111411#&,13*%%#%=&tjX***&#,1,111*$1%46&",
"$&&1&&1##=41&5&%;3Xij#%%%#16333&,3&&,w3,",
"$141%3&&1;=11&#=1,#sj#&%&436424&=&1143$&",
"12&$&@$,$=&1#X=&&3#pj.%$>1&&$11&$16&*=&&",
"58389;:;;::-;;:;::-sv%:3989999;;399;;;85"
};
