/* XPM */
static char *result[] = {
/* columns rows colors chars-per-pixel */
"64 64 104 2 ",
"   c #593134",
".  c #5D3839",
"X  c #603539",
"o  c #643C3D",
"O  c #6C3F3F",
"+  c #66403F",
"@  c #673F40",
"#  c #6B3F40",
"$  c #654342",
"%  c #6B4444",
"&  c #654845",
"*  c #6C4946",
"=  c #6E4C49",
"-  c #734546",
";  c #7C4447",
":  c #734847",
">  c #734748",
",  c #7A4749",
"<  c #734D4B",
"1  c #7A4D4C",
"2  c #75514E",
"3  c #7A514F",
"4  c #7E4F50",
"5  c #775350",
"6  c #7C5451",
"7  c #7E5855",
"8  c #7B6456",
"9  c #7F6759",
"0  c #7F6859",
"q  c #814D4E",
"w  c #83504F",
"e  c #834F50",
"r  c #835553",
"t  c #895655",
"y  c #845956",
"u  c #895957",
"i  c #865B58",
"p  c #8C5C59",
"a  c #915756",
"s  c #935957",
"d  c #925D5C",
"f  c #86605B",
"g  c #8D605D",
"h  c #846B5C",
"j  c #896D5E",
"k  c #94615E",
"l  c #99615F",
"z  c #876F60",
"x  c #8C6F60",
"c  c #956360",
"v  c #9A6361",
"b  c #857363",
"n  c #8C7262",
"m  c #8E7C6B",
"M  c #927665",
"N  c #927965",
"B  c #977768",
"V  c #927D6C",
"C  c #9B7C6B",
"Z  c #A46967",
"A  c #A96E6B",
"S  c #94816E",
"D  c #9B826D",
"F  c #958271",
"G  c #9B8473",
"H  c #A28672",
"J  c #A28973",
"K  c #A88C76",
"L  c #A58D79",
"P  c #AE8E7A",
"I  c #B58F7C",
"U  c #BA8E7B",
"Y  c #A0947C",
"T  c #AD927A",
"R  c #AE987E",
"E  c #B3937E",
"W  c #AB9A8A",
"Q  c #B69781",
"!  c #BB9682",
"~  c #B59982",
"^  c #BC9B84",
"/  c #B39F95",
"(  c #B6A38C",
")  c #B5A396",
"_  c #BAA595",
"`  c #BDA996",
"'  c #B6A398",
"]  c #BBA69A",
"[  c #B7A899",
"{  c #BCA99B",
"}  c #BDA6A1",
"|  c #BDA9A0",
" . c #C09682",
".. c #C19985",
"X. c #C39E89",
"o. c #C7A08C",
"O. c #C9A18D",
"+. c #CAA593",
"@. c #C1A79D",
"#. c #C2AB9D",
"$. c #C1B29A",
"%. c #C4AAA2",
"&. c #D5BFAA",
"*. c #D1C0A7",
/* pixels */
"&.) ` @.%.%.%.} %./ ] @.@._ @.@._ ) ) ' #.@.) { %.{ { %.#.{ _ _ _ _ { ' ' @.#.@.) _ ' %.] %.@./ ) _ / _ @.%.] { %.W ) ] @.#./ ( ",
"U ; t a t s a e q q r r 1 1 w ; 1 : - : q 3 : 6 q 1 3 r w : - > , : % $ q r , - r t e t s e - % + + % 1 a w , : % % 6 1 w - - M ",
"I t d d g g p y e p d 6 7 y 6 r k i u i p 7 y k i g p 7 7 y 7 i u i 6 t p p y p v g l d d p u 6 5 5 6 g k r u i y p u i r r a C ",
"! t p p d p 6 2 6 t 6 : < < < 7 k i d d y w f y y u 5 2 2 < y i i t p t y 5 t d u p y p u p r = r t i y y u p d u t 3 t 6 3 : x ",
"X.t y l d u 2 r 6 6 1 * 3 y 6 i u u u t 6 i u r 6 5 2 3 2 7 y 2 w 3 r 3 r r t d i k y i y r w r r r p r p l k y t 3 r r < 2 < C ",
"^ a A v d 6 6 2 r r 1 r d u u u 4 6 u r r y y < r y t < 2 7 2 3 2 < 3 3 r t p l l g g k y y y u t t y s d Z a r 3 < 1 1 r r t D ",
"+.d c y y 7 u r u 3 6 u t 5 y r t p s t t d i < r i t r y i u r 3 r r t u u p u y k l y 6 3 r r r 6 r p p t 3 6 < : 1 r r d r C ",
"X.t u y r u p u 1 r r 6 < 2 = 5 r u r p i u t t l 5 5 y i p u p d r y p t u p y l v u 3 3 p p p s l y 3 1 6 1 6 & < u t t d r C ",
"^ w p u i u p 2 3 r 5 3 2 2 5 7 6 6 r r 7 6 r u p 4 6 u p d i d y 7 i i p u u l v p u u y d y p i s t 6 6 1 t t r r y u p p r B ",
"^ 3 k d d y r 3 5 6 2 2 5 5 y 5 < 7 r 5 5 6 7 p y 4 u g i d d p r 2 5 y 6 r k l d w u y u y r u r 7 i t 5 3 6 t g u d u u k 5 N ",
"^ 1 g d d 3 3 < * 2 5 5 2 5 5 2 r u t 6 r i u t r 4 d p i p u u p y r r 3 t y u y r t p y 5 r 3 u y 6 * < < 6 d u u u r t s t C ",
"o.q k w 3 2 2 & * 2 2 5 2 = 2 2 r t t r t d 5 : < 6 y d p p u u p w 3 < t t u d u r u p y 5 3 2 5 < < & $ r d d y 1 1 w p d t B ",
"E q u 6 7 3 2 = 2 2 = 5 5 = 7 6 5 y p p u p r 4 t p i r y u u u u r 3 p y w u y 3 r p d r 2 < 5 2 < 6 < 5 y r u 5 < r r r r 6 M ",
"I q p 5 7 2 2 = 5 6 6 7 5 6 7 7 r r s 6 p p t u p t 7 y y u u r t r r p t < w y u p p y * < 6 y 5 5 6 7 6 r r 5 5 r p i 5 6 : n ",
"! q r 1 7 7 2 7 6 2 5 y y 7 5 2 4 r u u t 6 p r 5 y u u u l d u t i r < < 1 y g p u u 3 2 5 y y 7 < r 5 t u t d p p r 1 6 p r B ",
"! t i u i 7 7 7 & = = i f 5 = * e 1 p p 6 6 t 6 t p i p u d p u u r = 2 3 3 p p 3 6 w 5 7 5 6 6 6 r 6 7 i u v d p t u 5 u i 7 M ",
"X.s l v r r < & & = 7 i 5 5 5 2 < 6 r < < < 5 2 7 u p i i p s p u 2 & 1 r r 6 3 6 p 5 2 y 2 5 7 y 6 5 r r d r u u t g 6 y i y C ",
"X.t p 6 1 6 < = = 7 5 = 2 5 * < w r r 2 2 2 2 6 7 t r r r u p r 3 $ 2 5 r 6 6 y g 3 < y y = u y 5 < 5 5 r r r u r d 3 2 2 y 6 N ",
"Q > t t 2 = 2 5 5 5 2 y i 5 2 < 3 3 3 3 3 2 r y 6 t u i r u i y < < r u u u d g y 3 y y 7 5 y 2 = 5 6 6 3 r r y r 1 w r 7 y < N ",
"P , d 5 < 2 5 y 7 7 y r 5 5 = 2 y < * r y r 6 p i i c i y d v u 3 3 r i y 6 6 u r 3 5 y y 7 7 = 2 6 5 3 < 3 3 r r 1 y y y p r n ",
" .r 3 : 3 5 5 5 5 5 5 : 5 2 r t 6 * 6 v l r d l u s i 5 t v u 3 1 3 r 3 5 < r u 2 2 y g y y 2 < r 6 < 3 r t r 1 y u t u y r e C ",
"! - < 3 6 r 6 < * = r r u u t 5 < < y g k d d p p i p 5 y i < < : 3 2 2 < 2 6 y 2 i k g 5 2 3 < r 3 3 6 r 6 6 6 p t u d p 7 e n ",
"E , p r t u y 1 < r y r d u 2 7 6 r i p v u y u u g d 5 y 7 2 5 2 2 = = 5 6 t 5 i i 2 = < 2 3 6 r < 3 6 r u u u p r p v y < 1 M ",
"Q , y u u t r 3 r u 7 r u t 6 r y g s i d u t y i y 7 5 i y y y 2 5 2 2 y y 6 y p < $ & 2 2 3 r 5 2 i y y d t u d d c 5 : 1 e M ",
"! 6 r i p u d u p p i r 5 t 6 5 y p d d d d t u d y 6 p y p 5 < 2 * < y r 2 2 y < % = y r 5 6 5 7 p i 4 r r d d s d 2 * 5 6 : M ",
"E < r y u u y r d p 7 7 r r r t u p d d v u r p d r y y r 3 : 2 < & 2 3 < < 2 3 = < i y r 5 y y r i 4 5 7 p l p d 5 < 5 u 7 < n ",
"Q > r y d u r p u 6 t y r 6 6 d v i r d l 3 i g 5 t i 7 5 3 2 5 2 < 2 < 2 3 3 3 , y i 5 r y y r r 6 5 5 p v 7 5 r 5 6 6 3 y 1 M ",
"Q r g p v i u t 1 u u r r r p d l p l r u p Z d u d p y i < < 6 6 & % < 2 3 y y 5 7 t i g g y r t t 2 5 c y < 7 6 r r 5 3 6 > M ",
"..e i r r u r 1 6 r t u 6 6 i g p v v u d l p t t u 7 r 7 : 5 y < & < 5 r i 3 2 5 d i y y 6 6 5 r 5 < t y 4 7 6 < 5 4 < r t < M ",
"! 4 y 6 r r t t r r r 7 y 6 i i i p u y g u r u 6 6 : r 6 5 i 5 2 r i y 7 3 2 3 7 p i u 2 2 2 2 : 5 5 r 6 = < r 5 2 = r t y r M ",
"I , = % > 1 , # , > % 4 % > : : 1 , , 1 q , , > - . - q % - # $ $ % % @ % * < : : < * % $ $ % > % : % * % $ % < % @ $ % - % % 8 ",
"( m V V F G F F F m G G m F m F G G G G G V S S V S G G V F S b n F S V V L S S m V F V V m m G m F F F m F F m F F F m N F V Y ",
"_ #.{ #.' ] | ` { { ) ` { #.#.#.#.{ ` #.{ +.#.#.) #.[ ( @.#.| $.*.) { { { ' { [ { { [ _ ' ` #.{ ` _ ' ` #.#.#.{ ) ) ` ` { { #.| ",
": > q : : % o % : - % : q q - q r : , + % + + - O % # O ; -   N J X > % o O % < r 1 q - o % : - % - % % 1 q % % o . % , : 1 1 % ",
"6 p d i i = r p y y p p k y 6 v v 5 3 y u 3 5 i < 3 y p l r 6 J Q < p 6 7 g f k y g i & 5 g 5 6 7 y i y f u y 5 2 5 f i g p i 5 ",
"2 y p u 1 5 s t y t t p p d p u r 1 3 3 3 y y 2 < 3 7 6 k i , J ~ < y 7 c c v f 5 i y < 6 3 2 y 5 2 3 6 r 3 7 3 = 2 7 f p r 2 6 ",
"7 i y y r t t d p t s d u t r p u r r 5 r y 2 2 3 5 7 y r 2 > K ~ 4 y i g g i r 7 i y & = 7 5 5 2 3 r y y 6 y 2 < 7 p g 7 5 6 r ",
"y y y r 3 u p d 6 r s r 6 u p d t u r r y r 2 2 3 7 i i 5 2 > J ^ 1 i p i i 6 6 7 2 = = 7 p 7 2 6 2 5 i g p p 2 5 7 y i 7 r t 6 ",
"y p 6 < 6 u t 6 6 u u y p l p u 1 r : t u y 3 2 2 y 7 2 & = : D ! : y i p 6 y 6 2 < 2 y u 5 y 6 7 2 2 g i y 7 5 i 5 7 i 5 i < 5 ",
"k p 3 2 6 6 : 6 u d d p l d u t 6 r t 5 3 y 2 2 3 5 3 2 < 2 = J ^ , c g k y y 2 < 5 7 i = < 3 5 3 5 f g p y = 6 7 7 c i t r < i ",
"r 3 r 2 < 3 r r r i t u p v y 3 6 r q 3 y r 6 r 5 r 6 6 7 y 1 G ^ < k y 5 3 < 5 r 6 p 5 < 3 y r y g f 7 i 7 7 7 y c c 7 p 5 i i ",
"7 5 7 3 2 3 p r u s i t d d w u t 1 r r t u y 6 6 5 6 i u k e K ^ 4 p r 3 3 3 3 < y 5 : < 5 y 7 i i y y i 6 y i i g i 5 7 y i y ",
"y r 2 < & 2 3 w p d s d l u t p < = = 6 u d p r 6 y y d i i 6 J T > u < 3 6 3 5 6 y 3 3 2 < 5 7 y 7 y i i 6 7 g i i p 7 7 5 7 3 ",
"r 6 5 < < 3 3 u i k k d p u 7 5 < = < 6 u i t r t u d y p g > D E : < 2 7 5 2 i f 7 = < 3 r i i g y i 7 7 6 i y y g i 7 3 6 6 3 ",
"6 t r & < w 6 p u d r r u y 2 = 3 2 7 7 6 u r 6 t u u y i y , D ^ , i p r 5 y i t 6 2 3 y p k v y 6 i y 7 6 2 7 i i 7 6 y 7 6 r ",
"3 r 3 % 3 3 2 y p y t t p i 7 2 < 2 2 6 r d p p u r r u u u , D X.1 l u y 7 i u 2 5 y i u r u l y y p y 3 6 y y 6 6 7 6 7 y 7 6 ",
"w r < 1 3 3 y i t 3 i i y g 7 < 2 2 5 7 5 y p t r < u l p y , H ^ r t 1 y y y 6 6 y 2 6 3 * 3 i y u p r r y u y 6 y i 3 i r 3 2 ",
"3 6 3 3 y i r g 6 y g i p i 2 2 = 7 i < = 3 : : 2 u k l p r q H o.1 1 6 5 5 6 5 r 6 < 5 2 = d v s l p u r d i p y i 6 3 6 3 6 3 ",
"3 2 2 3 6 2 y p y i i 3 7 7 3 7 3 7 2 & 3 * 3 u u l l p 6 r q H E - 6 u y 6 6 < 5 6 7 5 6 t p l l d y d r d 3 r y 3 6 r y y r 3 ",
"2 2 y r 2 i y g y 7 7 3 7 7 p 6 = 2 7 2 < 2 y p l l l u y y , G E # 3 d i r 2 2 3 7 5 5 5 6 u d p t y w w 1 3 y 6 r y 6 2 r 3 r ",
"y 3 y r 3 r y p p t d p 7 g r = 2 u r 1 3 y u r d l p y t r : S  .- p d y 5 2 5 6 5 y 2 r i u y u r r u r r u r r i 6 2 3 p y r ",
"r w r 3 < 2 6 y p r p r p l 7 w 3 u r 3 w u w i v d u 3 3 3 % D ^ , d r r u 3 3 6 y t 3 y 5 1 3 3 2 3 r y 3 3 r 6 r 6 6 y p 6 r ",
"< w 2 1 w r r i 6 2 7 r p 3 y 3 < u r r r 6 y v l u r : r r $ S Q : 5 5 y r < 3 6 s u 6 6 < 5 6 r r w r u 1 7 r 7 7 y r y 6 r r ",
"2 3 t r w k k 6 3 k i 3 3 p w 1 t y w 3 3 t i c u 6 3 u r 6 + m ^ % i u y 1 r 3 r p p y 6 3 r p t r r r r 6 i i y 6 r 3 7 u y 3 ",
"y r u r u l y < l k u 3 r d t 3 3 r r 5 5 y y r 3 < y y r 2 - J ~ - i 5 3 3 t p s d u < w r r 6 3 w u t y d p 6 r 5 2 7 u p y 3 ",
"1 r u 6 p p w r u r p w r u r 3 t y t p y 2 2 < * < 6 3 < 7 t D ~ = 6 3 5 i p p u s < : 3 q r 6 t d p p d u 3 w t 6 r r u k y r ",
"6 i 3 y t r t p r i r 3 < 3 3 w t r t 7 3 3 5 2 2 2 2 < 2 g $ S R % 5 2 7 6 6 5 i 1 % 6 6 r p 3 t r t t t 5 < 1 u 6 2 2 y i 7 = ",
"y y r t : r y t 3 r t 3 < 2 w 6 6 t r < < 6 y 2 2 2 5 y i y $ D ~ % 5 < 5 < = 5 < : 2 u 6 q 1 6 y 7 r 1 w r 5 2 u 3 2 y l g r 3 ",
"3 : r 1 6 5 r < 3 y 3 3 < < 3 7 r y r 3 r y u < 3 5 2 i 2 5 % D T * 6 2 5 5 5 5 > 6 i u t t u i y y 7 1 t u 2 5 r 1 r l p t y t ",
": < 6 r t r 5 < r 6 w < 1 3 3 7 y t r r 6 y < * 3 r 6 6 2 y $ S R > t < 5 < 5 1 6 y 7 p k u p t r 6 5 : i 6 = r 3 3 t y 5 < 1 < ",
"3 p t u u r 6 2 3 r 2 < w r 3 y 5 6 t 6 5 2 & 2 r 3 r r r 5 < G ~ - 3 2 < 3 r 1 t p 7 7 r 5 r p 6 p r 1 r 1 6 u u r t u 6 1 3 1 ",
"u y r t 3 1 r 1 6 * 1 r u 7 6 r 5 y d 6 2 * y i y 6 r y y f : D ~ % 6 < 6 r , t u t 6 5 r 3 e t t y r 3 r t u v 6 5 i i 6 r r r ",
"r , r 1 - 1 q 1 : % q 1 : * = 3 1 < : % % * > r = : 3 1 5 2 o C L o < $ < , 6 e 1 5 : r 6 < r r : = , : , r r r * % < : < , : r ",
"j h h j h z M j 0 h h h h h h h h 8 8 0 j h h h 8 h h h h 8 8 J R 8 h 0 j h j j z h z z j n x x 0 0 h h j j x n h h 0 h h j h j "
};
