/* XPM */
static char *result[] = {
/* columns rows colors chars-per-pixel */
"40 40 213 2 ",
"   c #3C3039",
".  c #5D3409",
"X  c #563E0F",
"o  c #553E10",
"O  c #643909",
"+  c #44332C",
"@  c #5A4111",
"#  c #64480F",
"$  c #71520F",
"%  c #78550F",
"&  c #614611",
"*  c #664A12",
"=  c #6A4D12",
"-  c #6C5019",
";  c #715112",
":  c #7A5711",
">  c #7D5913",
",  c #624C22",
"<  c #6E522C",
"1  c #745323",
"2  c #6A5955",
"3  c #75675F",
"4  c #805C11",
"5  c #89610F",
"6  c #866015",
"7  c #8B6210",
"8  c #8D671B",
"9  c #916711",
"0  c #966914",
"q  c #9F6F11",
"w  c #966C1A",
"e  c #986B19",
"r  c #9C7017",
"t  c #9C7019",
"y  c #B4671D",
"u  c #AD7A13",
"i  c #A4761B",
"p  c #A7791D",
"a  c #AD7D1C",
"s  c #B37D11",
"d  c #BD7B17",
"f  c #886726",
"g  c #946221",
"h  c #916E29",
"j  c #9E7626",
"k  c #97732C",
"l  c #9A752D",
"z  c #AB6E27",
"x  c #B36520",
"c  c #BB6E2B",
"v  c #A87C25",
"b  c #A4752C",
"n  c #A57C2B",
"m  c #BF7328",
"M  c #BF6F33",
"N  c #A07A30",
"B  c #C97F34",
"V  c #857464",
"C  c #877A6F",
"Z  c #857A75",
"A  c #8A7C74",
"S  c #867D7A",
"D  c #BE8717",
"F  c #B5821C",
"G  c #BC851B",
"H  c #BE881D",
"J  c #B58526",
"K  c #B18329",
"L  c #BA862D",
"P  c #A78030",
"I  c #AA8232",
"U  c #A78239",
"Y  c #B58B37",
"T  c #B88D38",
"R  c #BB903A",
"E  c #C98C12",
"W  c #C48C1B",
"Q  c #CD9016",
"!  c #CE931D",
"~  c #D5961C",
"^  c #DB9C1F",
"/  c #CA8523",
"(  c #CD8A21",
")  c #CC9321",
"_  c #CF9A2F",
"`  c #D79325",
"'  c #DC9E20",
"]  c #D59D2E",
"[  c #CD873C",
"{  c #CE9B35",
"}  c #C89939",
"|  c #DFA023",
" . c #DEA635",
".. c #E4A423",
"X. c #E2A42A",
"o. c #E9AA2D",
"O. c #E3A532",
"+. c #E7AB33",
"@. c #EAAD35",
"#. c #E0A23E",
"$. c #E9AE38",
"%. c #EDB037",
"&. c #EEB23A",
"*. c #B28E50",
"=. c #87807D",
"-. c #8C827D",
";. c #91837B",
":. c #95897F",
">. c #C59845",
",. c #D4A344",
"<. c #D8A643",
"1. c #DCAB4A",
"2. c #E1A749",
"3. c #E5AC4C",
"4. c #E6B147",
"5. c #EBB240",
"6. c #E7B44C",
"7. c #EBB64C",
"8. c #EDB84E",
"9. c #F2BB4D",
"0. c #EDB952",
"q. c #F2BD53",
"w. c #D4B57B",
"e. c #8D8582",
"r. c #8E8883",
"t. c #8E8989",
"y. c #938680",
"u. c #938A85",
"i. c #998F87",
"p. c #958D8A",
"a. c #998F8A",
"s. c #9B9087",
"d. c #97908D",
"f. c #9A928C",
"g. c #99938F",
"h. c #878B96",
"j. c #948F90",
"k. c #938E98",
"l. c #969192",
"z. c #9C9492",
"x. c #9D9895",
"c. c #9B9699",
"v. c #9E9A9B",
"b. c #A89887",
"n. c #A8938F",
"m. c #A4998F",
"M. c #A39693",
"N. c #A89796",
"B. c #A29A95",
"V. c #AA9A93",
"C. c #A39B9A",
"Z. c #AB9E9D",
"A. c #B29D96",
"S. c #ABA29F",
"D. c #B2A396",
"F. c #B4A49C",
"G. c #B9AC9E",
"H. c #A39FA0",
"J. c #A4A0A1",
"K. c #ADA2A2",
"L. c #AFA7AA",
"P. c #B4A4A3",
"I. c #B9A7A5",
"U. c #B5AAA6",
"Y. c #BBACA4",
"T. c #B3A7A9",
"R. c #B5ABAB",
"E. c #BAADAD",
"W. c #B7B4A9",
"Q. c #B5B0AF",
"!. c #BDB2AD",
"~. c #B5AEB0",
"^. c #BAAEB1",
"/. c #B7B2B2",
"(. c #BCB3B4",
"). c #BEB8B7",
"_. c #BEB6B9",
"`. c #BEB9BA",
"'. c #CDB684",
"]. c #C1B2A6",
"[. c #C1B4AD",
"{. c #C5BAAB",
"}. c #C8BAAE",
"|. c #C1B5B4",
" X c #C4BBB6",
".X c #C9BCB5",
"XX c #C1B6B9",
"oX c #C3BBBC",
"OX c #C9BEBB",
"+X c #E3CA8A",
"@X c #C6C0BD",
"#X c #CBC3BD",
"$X c #D0C6BD",
"%X c #E0D2A8",
"&X c #A6B3CA",
"*X c #C5BEC1",
"=X c #C8BFC1",
"-X c #C6C1C2",
";X c #CAC3C4",
":X c #CFC9C2",
">X c #CCC6C9",
",X c #CEC9CB",
"<X c #D1C6C1",
"1X c #D3CBC5",
"2X c #D4CDCC",
"3X c #D7D0CB",
"4X c #D9D2CD",
"5X c #D4CFD1",
"6X c #D5D1D4",
"7X c #DAD5D4",
"8X c #DFD9D4",
"9X c #DDDADC",
"0X c #E2E0E2",
/* pixels */
"}.2X2X2XY.2X7X4X2XV.].1X2X1X* J ~ a ; @ 8 | 4.l X 4X5X6X7X9X9X7X6X5X9X0X=X5X=XI.",
"<X>X(.XXXXoXXX(.*Xz.#X;XoX@X-X> > $ *XS.= 8 1.N X (.XX~.XX=X*X_.|.P.|.=XXX=X*Xl.",
"1X(.H._.XX*X(.E.;Xu.@X>XE.XX/.@Xo Q./.x.@X* { j X E.T.~.XX~.XXXX|.K.T.*X=X|.=Xc.",
".X(.I.XXoX*XXXXXXXf.#X>X).@X;X@X/.).;Xx.-X= ) t @ oX*XoXXX|.|.Z.T._._.*X*X^.XXj.",
"[.XX_._.XX^.T.(.^.p.OX,X`.@X-X@XQ.oX;Xx.#X= ) w o *X_.^.^.~.n.K._.*X_.*X*X`.;Xl.",
"OX`._.(._.XX^.XX(.u.!.*X`.@X-X_.oX).;Xd.4 F ! 9 @ P.*X~.XX*X^.XX*X*X*X*X`.*X*Xc.",
"$X=X(.(.XXXX;X_.(.e.).-X`.-XXX XQ./.,Xo > F u > H.|.*X_.T.^.*X*XP.XX>X*X*X*X*Xc.",
"1X;XR.T.K._.R._.m.Z !.!.).`.U.(.).* * * * = = # *X*X*X=X*X*X_.XX~.*X`.*X/.`.>XH.",
"2X=XXX(.|.XX_.XX|.;.F.Y.).oXP.o > u H ( W J u > o L.XX`.`.XX-X_.`.`.`./.R._.*Xc.",
"4X;XXX^.(.E._.^.XXa.[.oX/./.!.4 u ^ $.&.&.$.^ u 4 N.M.V.v.x.B.z.x.B.x.r.p.e.-.Z ",
"2X-XXXXXT._.XX*XXXu.|.;X/.).@ u ^ +.8.0.0.8.+.^ u & 8X7X3X8X7X7X3X4X:X1X;X.X#XD.",
"#X;X(.(.oX_.XXR.^.d.[.oXU.@ & G @.7.8.0.0.8.7.+.H * @ =XoX@X>XoX`.@X@X#XoX|.@X:.",
"1X,X(._._.~.*XT.XXa.].*Xo ; a w J %.$.%.%.@.%.K w a ; o ;X;X#X@XoX-X@XoX@X@X-Xf.",
"1XoX_.(._.XX*X^.XXe.[.=X; 0 ( e e F F F F F F w e ! e ; (.oX X;X#X(.XXoXoXoX2Xx.",
"<XoXE.^.oXXX(.E.XXt.;X@ 0 d y ` p & # = = = @ p ` y d 9 @ (.oX!.*X;X X).oX@X,Xx.",
"1XoXR.(.XXXXXXA.[.M..X@ g m y #.P # q D G q # P  .x m g @ @XoX/.|.].-X(.!.@X<Xf.",
"1X-XXX-X*X*X_.|.oXf.* 7 z M c 2.} p ] %.$.] p } 2.c M z 7 * @XoXY.E.].U.E.|.-Xf.",
"|.XXXX*XXXXX^.oX;Xz.= s / [ [ 3.5.+.8.0.0.8.+.5.3.[ B / s * ;X@X).`.(. X|.Q. Xi.",
"<X;XXXXX*XC.P._.*Xd.* s ~ O.4.7.8.8.0.0.0.0.8.8.7.7.O.~ s * ;X`.`.`.oX@X_.oXY.C ",
"D.e.e.a.d.u.i.f.p.A = W +.9.q.q.0.0.0.0.0.0.0.0.q.q.9.@.W = s.i.:.;.i.f.-.i.=.C ",
"{.#X@X#X2X8X7X2X@XOX= ) _ R R Y ,.0.0.0.0.0.0.,.T R T _ ) = ].$X!.#X.X|.@X!. XU.",
"4X7X*X;X>X;X_.*X@X*X= ! n , @ , U 9.0.8.0.0.8.U , @ , N ) - #X:X X,X*X`.>X>X2XH.",
"<X>XXX-XXXE.|.oXoX=X= ` '.h.+ g.w.+.8.0.0.8.+.w.g.+ h.'.) =  X,XE.oXoX-X-X`.(.l.",
"1X>XoXXXXX_._.=XXXoX= D %X&X  k.w...7.0.0.7.X.w.k.+ &X%XD = @X6XR./.-X`.;X@X(.e.",
"<X*XoX*X;X;X>XoXXX=X# s +XW.+ 2 *.$.8.0.q.8.+.*.2 + W.+Xs =  X>X`.`.XX-X>X>X>Xd.",
":X,X=X(.XXXX*XA.I.^.= u $.>.O . b 7.0.6.6.0.0.b . O >.$.u =  XOX*X;X;X;X;X*X`.v.",
"{.>XE.E.=XoX^.Z.N.E.|.: a ! G L <.1.h < < h 1.,.L G ) a : v.:X2X*X-X-X;X*X`.;Xv.",
"#XXX(.OX_.oXoXI.I.=XoX@ : u ^ &.9.1.k 1 1 l 1.q.&.' u % o B.:X>X`.-X-X(.*X`.>Xc.",
"2X;X(.XX*X*X_.^.XX;X=X@ @ > F ) O.4.4. .X.4.6.O.) s > & @ B.@X,X`.-X`.(.XXE.-Xz.",
"G.C.a.B.M.p.p.a.a.d.p.@ 7 q ; = r ! ! Q Q ! ! r = ; q 5 @ B.!.5X;X>X-X-X;XR.J.p.",
"}.1X.X<X#X#X XOX#X.X#X@ i E 9 7 5 5 5 7 7 5 5 7 7 0 E i @ C.-X6X-X;X>X;X_.`.oXz.",
"2X-X_.-X-XXX_.XX*XoXOX@ p ..Q E 0 @ @ @ o @ o 9 E Q ..p @ x.:X6X-X`.XX-X_.-X,Xc.",
"<XoX(.`.oX).XX_.Z.F.|.@ i ....Q 7 @ ;Xd.!.;X@ 9 Q ....i @ i. X2X_.*X(.`.`.-X>XC.",
"3X>X).-XoXQ.(.oX).T.XX@ i o.5.X.e @ ;Xd. X2X@ e X.$.o.i @ f.<X;X^.XXXX`._.*X-Xd.",
"1X;XoXoXXXoXQ./.(.L.E.@ v 5.8.o.i @ XXi. XoX@ i @.0.5.v @ M.@X5X-X*X>X;X-X>X*Xu.",
"#XoX(./.|.(.(.oX XXX(.@ I 9.0.@.p @ `.=.!.-X@ p $.8.9.I @ x.(.-X`.`.>X-X*X>X-Xp.",
"#X-XQ.|.oXXX-XoXoX`.#X@ a $.8.9.n @ *Xu.].,X@ n 8.8.%.p @ x.[.-X(.`.;X;X;X`.`.z.",
"<XOXQ.oX@XXXXXoX`.(.(.(.6 w l l f ).XXx. X;XoXf l l w 6 -Xu.#X6X`.(.`.;X_.(.XXz.",
"#X-X_._.oXR.XX*XR.K.`.-X-Xo o o (.-X>XC..X2X*X;Xo o @ ).T.=.!.-X/.n.R.`.^.U.-Xz.",
"V.d.p.-.f.-.y.M.;.-.d.t.t.l.p.S Z t.t.3 F.c.S e.-.f.u.=.3 V b.:.-.A u.f.d.;.d.-."
};
