/* XPM */
static char *result[] = {
/* columns rows colors chars-per-pixel */
"40 46 129 2 ",
"   c #3C3039",
".  c #5D3409",
"X  c #563E0F",
"o  c #553E10",
"O  c #643909",
"+  c #44332C",
"@  c #5A4111",
"#  c #64480F",
"$  c #71520F",
"%  c #78550F",
"&  c #614611",
"*  c #664A12",
"=  c #6A4D12",
"-  c #6C5019",
";  c #715112",
":  c #7A5711",
">  c #7D5913",
",  c #73561C",
"<  c #624C22",
"1  c #6E522C",
"2  c #745323",
"3  c #6A5955",
"4  c #805C11",
"5  c #89610F",
"6  c #866015",
"7  c #8B6210",
"8  c #8D671B",
"9  c #916711",
"0  c #966914",
"q  c #9F6F11",
"w  c #966C1A",
"e  c #986B19",
"r  c #9C7017",
"t  c #9C7019",
"y  c #B4671D",
"u  c #A37313",
"i  c #AD7A13",
"p  c #A4761B",
"a  c #A7791D",
"s  c #AD7D1C",
"d  c #B37D11",
"f  c #BD7B17",
"g  c #886726",
"h  c #886827",
"j  c #946221",
"k  c #916E29",
"l  c #9E7626",
"z  c #97732C",
"x  c #9A752D",
"c  c #AB6E27",
"v  c #B36520",
"b  c #BB6E2B",
"n  c #A87C25",
"m  c #A4752C",
"M  c #A57C2B",
"N  c #BF7328",
"B  c #BF6F33",
"V  c #A07A30",
"C  c #C97F34",
"Z  c #BE8717",
"A  c #B5821C",
"S  c #BC851B",
"D  c #BE881D",
"F  c #B58526",
"G  c #B18329",
"H  c #BA862D",
"J  c #A78030",
"K  c #AA8232",
"L  c #A78239",
"P  c #B58B37",
"I  c #B18938",
"U  c #B88D38",
"Y  c #BB903A",
"T  c #C98C12",
"R  c #C48C1B",
"E  c #CD9016",
"W  c #CE931D",
"Q  c #D5961C",
"!  c #DB9C1F",
"~  c #CA8523",
"^  c #CD8A21",
"/  c #CC9321",
"(  c #CF9A2F",
")  c #D79325",
"_  c #DC9E20",
"`  c #D59D2E",
"'  c #DB9F29",
"]  c #CD873C",
"[  c #CE9B35",
"{  c #C89939",
"}  c #DFA023",
"|  c #DEA635",
" . c #E4A423",
".. c #E2A42A",
"X. c #E9AA2D",
"o. c #E3A532",
"O. c #E7AB33",
"+. c #EAAD35",
"@. c #E0A23E",
"#. c #E9AE38",
"$. c #EDB037",
"%. c #EEB23A",
"&. c #B28E50",
"*. c #C59845",
"=. c #CA9C40",
"-. c #D4A344",
";. c #D8A643",
":. c #DCAB4A",
">. c #E2AD41",
",. c #E1A749",
"<. c #E5AC4C",
"1. c #E6B147",
"2. c #EBB240",
"3. c #E7B44C",
"4. c #EBB64C",
"5. c #EDB84E",
"6. c #F2BB4D",
"7. c #EDB952",
"8. c #F2BD53",
"9. c #D4B57B",
"0. c #99938F",
"q. c #878B96",
"w. c #938E98",
"e. c #B7B4A9",
"r. c #CDB684",
"t. c #E3CA8A",
"y. c #E0D2A8",
"u. c #A6B3CA",
"i. c None",
/* pixels */
"i.i.i.i.i.i.i.i.i.i.i.i.i.i.i.i.i.@ @ @ @ @ i.i.i.i.i.i.i.i.i.i.i.i.i.i.i.i.i.i.",
"i.i.i.i.i.i.i.i.i.i.i.i.i.i.i.i.h I I P I L - i.i.i.i.i.i.i.i.i.i.i.i.i.i.i.i.i.",
"i.i.i.i.i.i.i.i.i.i.i.i.i.i.i.> G >.{ *.;.>.z , i.i.i.i.i.i.i.i.i.i.i.i.i.i.i.i.",
"i.i.i.i.i.i.i.i.i.i.i.i.i.i.* F Q s ; @ 8 } 1.x X i.i.i.i.i.i.i.i.i.i.i.i.i.i.i.",
"i.i.i.i.i.i.i.i.i.i.i.i.i.i.i.> > $ i.i.= 8 :.V X i.i.i.i.i.i.i.i.i.i.i.i.i.i.i.",
"i.i.i.i.i.i.i.i.i.i.i.i.i.i.i.i.o i.i.i.i.* [ l X i.i.i.i.i.i.i.i.i.i.i.i.i.i.i.",
"i.i.i.i.i.i.i.i.i.i.i.i.i.i.i.i.i.i.i.i.i.= / t @ i.i.i.i.i.i.i.i.i.i.i.i.i.i.i.",
"i.i.i.i.i.i.i.i.i.i.i.i.i.i.i.i.i.i.i.i.i.= / w o i.i.i.i.i.i.i.i.i.i.i.i.i.i.i.",
"i.i.i.i.i.i.i.i.i.i.i.i.i.i.i.i.i.i.i.i.4 A W 9 @ i.i.i.i.i.i.i.i.i.i.i.i.i.i.i.",
"i.i.i.i.i.i.i.i.i.i.i.i.i.i.i.i.i.i.i.o > A i > i.i.i.i.i.i.i.i.i.i.i.i.i.i.i.i.",
"i.i.i.i.i.i.i.i.i.i.i.i.i.i.i.i.i.* * * * = = # i.i.i.i.i.i.i.i.i.i.i.i.i.i.i.i.",
"i.i.i.i.i.i.i.i.i.i.i.i.i.i.i.o > i D ^ R F i > o i.i.i.i.i.i.i.i.i.i.i.i.i.i.i.",
"i.i.i.i.i.i.i.i.i.i.i.i.i.i.i.4 i ! #.%.%.#.! i 4 i.i.i.i.i.i.i.i.i.i.i.i.i.i.i.",
"i.i.i.i.i.i.i.i.i.i.i.i.i.i.@ i ! O.5.7.7.5.O.! i & i.i.i.i.i.i.i.i.i.i.i.i.i.i.",
"i.i.i.i.i.i.i.i.i.i.i.i.i.@ & S +.4.5.7.7.5.4.O.D * @ i.i.i.i.i.i.i.i.i.i.i.i.i.",
"i.i.i.i.i.i.i.i.i.i.i.i.o ; s w F $.#.$.$.+.$.G w s ; o i.i.i.i.i.i.i.i.i.i.i.i.",
"i.i.i.i.i.i.i.i.i.i.i.i.; 0 ^ e e A A A A A A w e W e ; i.i.i.i.i.i.i.i.i.i.i.i.",
"i.i.i.i.i.i.i.i.i.i.i.@ 0 f y ) a & # = = = @ a ) y f 9 @ i.i.i.i.i.i.i.i.i.i.i.",
"i.i.i.i.i.i.i.i.i.i.i.@ j N y @.J # q Z S q # J | v N j @ i.i.i.i.i.i.i.i.i.i.i.",
"i.i.i.i.i.i.i.i.i.i.* 7 c B b ,.{ a ` $.#.` a { ,.b B c 7 * i.i.i.i.i.i.i.i.i.i.",
"i.i.i.i.i.i.i.i.i.i.= d ~ ] ] <.2.O.5.7.7.5.O.2.<.] C ~ d * i.i.i.i.i.i.i.i.i.i.",
"i.i.i.i.i.i.i.i.i.i.* d Q o.1.4.5.5.7.7.7.7.5.5.4.4.o.Q d * i.i.i.i.i.i.i.i.i.i.",
"i.i.i.i.i.i.i.i.i.i.= R O.6.8.8.7.7.7.7.7.7.7.7.8.8.6.+.R = i.i.i.i.i.i.i.i.i.i.",
"i.i.i.i.i.i.i.i.i.i.= / ( Y Y P -.7.7.7.7.7.7.-.U Y U ( / = i.i.i.i.i.i.i.i.i.i.",
"i.i.i.i.i.i.i.i.i.i.= W M < @ < L 6.7.5.7.7.5.L < @ < V / - i.i.i.i.i.i.i.i.i.i.",
"i.i.i.i.i.i.i.i.i.i.= ) r.q.+ 0.9.O.5.7.7.5.O.9.0.+ q.r./ = i.i.i.i.i.i.i.i.i.i.",
"i.i.i.i.i.i.i.i.i.i.= Z y.u.  w.9. .4.7.7.4...9.w.+ u.y.Z = i.i.i.i.i.i.i.i.i.i.",
"i.i.i.i.i.i.i.i.i.i.# d t.e.+ 3 &.#.5.7.8.5.O.&.3 + e.t.d = i.i.i.i.i.i.i.i.i.i.",
"i.i.i.i.i.i.i.i.i.i.= i #.*.O . m 4.7.3.3.7.7.m . O *.#.i = i.i.i.i.i.i.i.i.i.i.",
"i.i.i.i.i.i.i.i.i.i.i.: s W S H ;.:.k 1 1 k :.-.H S / s : i.i.i.i.i.i.i.i.i.i.i.",
"i.i.i.i.i.i.i.i.i.i.i.@ : i ! %.6.:.z 2 2 x :.8.%._ i % o i.i.i.i.i.i.i.i.i.i.i.",
"i.i.i.i.i.i.i.i.i.i.i.@ @ > A / o.1.1.| ..1.3.o./ d > & @ i.i.i.i.i.i.i.i.i.i.i.",
"i.i.i.i.i.i.i.i.i.i.i.@ 7 q ; = r W W E E W W r = ; q 5 @ i.i.i.i.i.i.i.i.i.i.i.",
"i.i.i.i.i.i.i.i.i.i.i.@ p T 9 7 5 5 5 7 7 5 5 7 7 0 T p @ i.i.i.i.i.i.i.i.i.i.i.",
"i.i.i.i.i.i.i.i.i.i.i.@ a  .E T 0 @ @ @ o @ o 9 T E  .a @ i.i.i.i.i.i.i.i.i.i.i.",
"i.i.i.i.i.i.i.i.i.i.i.@ p  . .E 7 @ i.i.i.i.@ 9 E  . .p @ i.i.i.i.i.i.i.i.i.i.i.",
"i.i.i.i.i.i.i.i.i.i.i.@ p X.2...e @ i.i.i.i.@ e ..#.X.p @ i.i.i.i.i.i.i.i.i.i.i.",
"i.i.i.i.i.i.i.i.i.i.i.@ n 2.5.X.p @ i.i.i.i.@ p +.7.2.n @ i.i.i.i.i.i.i.i.i.i.i.",
"i.i.i.i.i.i.i.i.i.i.i.@ K 6.7.+.a @ i.i.i.i.@ a #.5.6.K @ i.i.i.i.i.i.i.i.i.i.i.",
"i.i.i.i.i.i.i.i.i.i.i.@ s #.5.6.M @ i.i.i.i.@ M 5.5.$.a @ i.i.i.i.i.i.i.i.i.i.i.",
"i.i.i.i.i.i.i.i.i.i.i.i.6 w x x g i.i.i.i.i.i.g x x w 6 i.i.i.i.i.i.i.i.i.i.i.i.",
"i.i.i.i.i.i.i.i.i.i.i.i.i.o o o i.i.i.i.i.i.i.i.o o @ i.i.i.i.i.i.i.i.i.i.i.i.i.",
"i.i.i.i.i.i.i.i.i.i.i.i.i.i.i.i.i.i.i.i.i.i.i.i.i.i.i.i.i.i.i.i.i.i.i.i.i.i.i.i.",
"i.i.i.i.i.i.i.i.i.i.i.i.i.i.i.i.i.i.i.i.i.i.i.i.i.i.i.i.i.i.i.i.i.i.i.i.i.i.i.i.",
"i.i.i.i.i.i.i.i.i.i.i.i.i.i.i.i.i.i.i.i.i.i.i.i.i.i.i.i.i.i.i.i.i.i.i.i.i.i.i.i.",
"i.i.i.i.i.i.i.i.i.i.i.i.i.i.i.i.i.i.i.i.i.i.i.i.i.i.i.i.i.i.i.i.i.i.i.i.i.i.i.i."
};
