/* XPM */
static char *result[] = {
/* columns rows colors chars-per-pixel */
"40 46 215 2 ",
"   c #1F1E1E",
".  c #201F1F",
"X  c #242222",
"o  c #292626",
"O  c #2C2827",
"+  c #282728",
"@  c #2E2929",
"#  c #332E2D",
"$  c #3D2E28",
"%  c #36302F",
"&  c #2E2E30",
"*  c #2F3032",
"=  c #3B3534",
"-  c #3E3837",
";  c #3E3939",
":  c #363536",
">  c #5D0102",
",  c #570C03",
"<  c #441C1B",
"1  c #7A011A",
"2  c #630009",
"3  c #563417",
"4  c #4E2B0F",
"5  c #6E3400",
"6  c #703700",
"7  c #770328",
"8  c #740D32",
"9  c #402F28",
"0  c #452F27",
"q  c #502E2C",
"w  c #44332C",
"e  c #453C29",
"r  c #52352E",
"t  c #423836",
"y  c #443C3B",
"u  c #463937",
"i  c #583C33",
"p  c #422531",
"a  c #633C30",
"s  c #52461E",
"d  c #764716",
"f  c #4D412C",
"g  c #554824",
"h  c #54482C",
"j  c #5C4D2C",
"k  c #534722",
"l  c #5E512E",
"z  c #49403F",
"x  c #4D4231",
"c  c #5A4637",
"v  c #5E5332",
"b  c #654A3D",
"n  c #65493A",
"m  c #66553A",
"M  c #79553E",
"N  c #68472B",
"B  c #3D3D40",
"V  c #7B1444",
"C  c #4A3D42",
"Z  c #553541",
"A  c #79304E",
"S  c #733449",
"D  c #3F4345",
"F  c #424244",
"G  c #4C4443",
"H  c #4B4A4B",
"J  c #4B4841",
"K  c #504644",
"L  c #534945",
"P  c #5B4B45",
"I  c #544C4A",
"U  c #584E4C",
"Y  c #5A514E",
"T  c #5A5346",
"R  c #535355",
"E  c #5D5453",
"W  c #5B5A5B",
"Q  c #585759",
"!  c #654B42",
"~  c #694D48",
"^  c #744549",
"/  c #655241",
"(  c #6C5245",
")  c #64564E",
"_  c #6D5449",
"`  c #6B584D",
"'  c #7B5C4E",
"]  c #765A49",
"[  c #644952",
"{  c #754B57",
"}  c #615654",
"|  c #625957",
" . c #6A5B55",
".. c #655C5A",
"X. c #685E5B",
"o. c #6F5653",
"O. c #715655",
"+. c #735C53",
"@. c #735C5B",
"#. c #7C5E51",
"$. c #79654E",
"%. c #69605E",
"&. c #6A6359",
"*. c #7D6353",
"=. c #7B6559",
"-. c #7A6855",
";. c #6A614E",
":. c #615F61",
">. c #725F63",
",. c #636263",
"<. c #6D6564",
"1. c #6C6C6E",
"2. c #696769",
"3. c #716866",
"4. c #746D6C",
"5. c #7B6762",
"6. c #7B716F",
"7. c #75706F",
"8. c #756F70",
"9. c #7E7573",
"0. c #767679",
"q. c #7B7A7B",
"w. c #757577",
"e. c #89021A",
"r. c #80042F",
"t. c #8B003E",
"y. c #960037",
"u. c #A5003C",
"i. c #A9003E",
"p. c #B4033E",
"a. c #852029",
"s. c #C8003E",
"d. c #935109",
"f. c #895319",
"g. c #944F04",
"h. c #845C36",
"j. c #915C22",
"k. c #820845",
"l. c #960641",
"z. c #8B1645",
"x. c #931043",
"c. c #A70744",
"v. c #BE154C",
"b. c #B11245",
"n. c #852C46",
"m. c #902A53",
"M. c #B42E5A",
"N. c #9D3861",
"B. c #C11D52",
"V. c #C10D47",
"C. c #8A6746",
"Z. c #816553",
"A. c #846D5C",
"S. c #85705C",
"D. c #89725E",
"F. c #8D7054",
"G. c #8D4E67",
"H. c #826B65",
"J. c #94606F",
"K. c #867162",
"L. c #8A7462",
"P. c #8C7768",
"I. c #9E6F7F",
"U. c #807674",
"Y. c #847C79",
"T. c #887A78",
"R. c #937A79",
"E. c #A76B7C",
"W. c #89826B",
"Q. c #90806D",
"!. c #8A817E",
"~. c #8B8572",
"^. c #9E847C",
"/. c #948678",
"(. c #AA8B6C",
"). c #7E7F80",
"_. c #857E84",
"`. c #BA6483",
"'. c #C17796",
"]. c #848485",
"[. c #8C8482",
"{. c #8B8B8D",
"}. c #888689",
"|. c #958985",
" X c #958884",
".X c #8E8E90",
"XX c #8F9093",
"oX c #929294",
"OX c #9B9C9E",
"+X c #9A9696",
"@X c #A28A8B",
"#X c #AA928C",
"$X c #A99B8E",
"%X c #A8979F",
"&X c #B39C96",
"*X c #B7A49B",
"=X c #B49CA7",
"-X c #A6A6A9",
";X c #A9A9AD",
":X c #A6A5A6",
">X c #BEAFAB",
",X c #B2AFB2",
"<X c #B2B3B6",
"1X c #B9B9BD",
"2X c #BBB8BA",
"3X c #AFB3B5",
"4X c #C3B2B0",
"5X c #BCBDC1",
"6X c #BEC6C7",
"7X c #C7C5C5",
"8X c #CBCED1",
"9X c #D3D2D4",
"0X c #E0DBD6",
"qX c #E7E4E0",
"wX c None",
/* pixels */
"wXwXwXwXwXwXwXwXwXwXwXwXwXwXwXwXwXwXwXwXwXwXwXwXwXwXwXwXwXwXwXwXwXwXwXwXwXwXwXwX",
"wXwXwXwXwXwXwXwXwXwXwXwXwXwXX = y y y O wXwXwXwXwXwXwXwXwXwXwXwXwXwXwXwXwXwXwXwX",
"wXwXwXwXwXwXwXwXwXwXwXwXwXwX@ y L G G = o wXwXwXwXwXwXwXwXwXwXwXwXwXwXwXwXwXwXwX",
"wXwXwXwXwXwXwXwXwXwXwXwX. o y U W } E G # X wXwXwXwXwXwXwXwXwXwXwXwXwXwXwXwXwXwX",
"wXwXwXwXwXwXwXwXwXwXwX. . X o # # % % O X . . wXwXwXwXwXwXwXwXwXwXwXwXwXwXwXwXwX",
"wXwXwXwXwXwXwXwXwXwX. @ @ # ; ; - - ; ; : @ # o wXwXwXwXwXwXwXwXwXwXwXwXwXwXwXwX",
"wXwXwXwXwXwXwXwXo o # G G L ..........X.E G G ; @ o wXwXwXwXwXwXwXwXwXwXwXwXwXwX",
"wXwXwXwXwXwXwXX % G E 9.4.| ..........X.....9.3.I t o wXwXwXwXwXwXwXwXwXwXwXwXwX",
"wXwXwXwXwXwXX % G } %.4.9.9.9.9.9.9.U.U.U.9.6.<.| Y t @ wXwXwXwXwXwXwXwXwXwXwXwX",
"wXwXwXwXwXX % G E ,.....4.Y.Y.[.|.[. XY.Y.9.&...X...U = O wXwXwXwXwXwXwXwXwXwXwX",
"wXwXwXwX. # G | ....| X.X...X.U.[.!.T.4.| X.....| | | U = o wXwXwXwXwXwXwXwXwXwX",
"wXwXwXwX  # G | U y K | X.E L X.3.<.3.R L ....Y G G W E t X wXwXwXwXwXwXwXwXwXwX",
"wXwXwXwX# # = L I I I I E E y G E | I y G | Y I L L U y # # @ wXwXwXwXwXwXwXwXwX",
"wXwXwXX = # @ G E ..E K } | L K Y  .L K Y ..L U | ..I = O = @ . wXwXwXwXwXwXwXwX",
"wXwXwX. . # y E ..U K =.S.D.A.A.S.K.S.A.K.K.A.) K ....I = o X . wXwXwXwXwXwXwXwX",
"wXwXwXX   = } ..U U $.K.L.L.L.L.L.D.L.L.L.L.L.=.) I W | L X   X wXwXwXwXwXwXwXwX",
"wXwXwXX o G X...T ` L.K.L.L.L.L.L.L.L.L.D.L.L.P.A.P E %.E # X . wXwXwXwXwXwXwXwX",
"wXwXwXX = U X...+.*.S.S.S.A.L.L.L.L.L.L.D.S.S.D.A.'  .....z @ . wXwXwXwXwXwXwXwX",
"wXwXwXX = ..9.X.+.] l l j m S.L.L.L.D.L.$.l l j l '  .4.6.G O . wXwXwXwXwXwXwXwX",
"wXwXwXX = <.!.%.m -.W.f -./.L.L.L.L.L.L.Q.~.x  .W.m ` 9.Y.G @ . wXwXwXwXwXwXwXwX",
"wXwXwXX = X.U.X.h W.7XG _.4XP.L.K.D.L.S.$X1Xy |.2Xl T 4.9.G O . wXwXwXwXwXwXwXwX",
"wXwXwXX = U %...h /.9XG ..|.P.L.L.L.L.D./.[.= +X7Xm T %...z @ . wXwXwXwXwXwXwXwX",
"wXwXwXX = U X...m $XqXm 3 M D.L.L.L.L.L.*.N 4 *X0X$.) ..| z @ . wXwXwXwXwXwXwXwX",
"wXwXwXX # z E X._ ^.4Xf.5 d D.L.L.L.D.P.M 6 6 (.4X$. .| I - O wXwXwXwXwXwXwXwXwX",
"wXwXwXwXX # G } ! ( C.f.g.j.D.L.L.L.L.L.C.d.g.h.] N } Y t o wXwXwXwXwXwXwXwXwXwX",
"wXwXwXwX. # G } z u n h.C.F.L.L.L.L.L.L.D.F.h.M i t Y Y - X wXwXwXwXwXwXwXwXwXwX",
"wXwXwXwX+ o % L ,.E r c ^ =.A.A.Z.A.A.A.Z.' ! i i :.Q y @ + wXwXwXwXwXwXwXwXwXwX",
"wXwXwXwXD D C ; q.Y.u 0 r a ~ ( ( ^ ( ( b i 0 w ..oXE ; F F B wXwXwXwXwXwXwXwXwX",
"wXwXwX: :.oXXX= 8.{.2.u 0 w w w w w w w w w 9 U ].;XH W :X0.H & wXwXwXwXwXwXwXwX",
"wXwXwX: P T.OX0.).1.H W <.q.[.+.n b b U._.8.:.I 2.,X5.=./.2.D & wXwXwXwXwXwXwXwX",
"wXwXx G ~ 9.{.9.,.R R ].;X1X2X XH.5.P.:X5X3XOX2.Q _.=.#.=.K : % wXwXwXwXwXwXwXwX",
"wXk h o.4.w.<.w # H q.-X8X8X<XOX].Y.oX;X6X8X5XXX..w a _ ] i 9 $ wXwXwXwXwXwXwXwX",
"wXs j O.@.Y - $ % B ,.oX<X1XOX].).0.).XX;X6X:Xq.I w b Z.H.<.H & wXwXwXwXwXwXwXwX",
"wXwXh n m x wXwX< q ..1.{.oX].1.,.,.:.0.{.XXq.:.U e A.@X$X{.R @ wXwXwXwXwXwXwXwX",
"wXwXwXk s wXwXwX2 8 ~ E ,.8.1.:.W W W 2.1.4.W [ S a ^.4X,XoXR @ wXwXwXwXwXwXwXwX",
"wXwXwXwXwXwXwX> 7 t.x.^ O.O.@.8.0.0.0.,. .O.O.A 8 V E.*X&X/.I & wXwXwXwXwXwXwXwX",
"wXwXwXwXwXwXwX> r.i.p.b.z.A 8.+X<X5X-X).O.V z.l.l.V J.^./.5.c f wXwXwXwXwXwXwXwX",
"wXwXwXwXwXwXwX> 1 y.s.s.u.z.G.%X7X8X3X`.m.l.i.c.t.7 ^ -.' / j wXwXwXwXwXwXwXwXwX",
"wXwXwXwXwXwXwXwX> 1 p.v.c.u.V.E.%X=X@XM.c.l.b.c.r.> 3 g k k wXwXwXwXwXwXwXwXwXwX",
"wXwXwXwXwXwXwXwXwXwXZ R.N.u.V.V.B.B.B.c.y.k.>.[ p wXwXwXwXwXwXwXwXwXwXwXwXwXwXwX",
"wXwXwXwXwXwXwXwXwXwXF ;X4X'.`.n.7 e.a.n.A S >.T e wXwXwXwXwXwXwXwXwXwXwXwXwXwXwX",
"wXwXwXwXwXwXwXwXwXwXz :X7X5X:XW 0 , 3 m / ` ( v s wXwXwXwXwXwXwXwXwXwXwXwXwXwXwX",
"wXwXwXwXwXwXwXwXwXwXh +.P.R.R.@.~ wXwXg g g g wXwXwXwXwXwXwXwXwXwXwXwXwXwXwXwXwX",
"wXwXwXwXwXwXwXwXwXwXj =. X#X#XH.o.wXwXwXwXwXwXwXwXwXwXwXwXwXwXwXwXwXwXwXwXwXwXwX",
"wXwXwXwXwXwXwXwXwXwXj L.#X4X&XH.wXwXwXwXwXwXwXwXwXwXwXwXwXwXwXwXwXwXwXwXwXwXwXwX",
"wXwXwXwXwXwXwXwXwXwXwXwXwXwXwXwXwXwXwXwXwXwXwXwXwXwXwXwXwXwXwXwXwXwXwXwXwXwXwXwX"
};
