/* XPM */
static char *result[] = {
/* columns rows colors chars-per-pixel */
"29 33 31 1 ",
"  c #2E1E22",
". c #222020",
"X c #3D2D26",
"o c #323234",
"O c #5C0000",
"+ c #5C2E00",
"@ c #7C003F",
"# c #462F26",
"$ c #453C3B",
"% c #534721",
"& c #69423A",
"* c #545456",
"= c #7C5E4F",
"- c #655C5A",
"; c #705654",
": c #767678",
"> c #9A003F",
", c #C5003F",
"< c #964F00",
"1 c #8A7461",
"2 c #8F7772",
"3 c #8E8582",
"4 c #928A8C",
"5 c #979799",
"6 c #B7A099",
"7 c #B7B7BB",
"8 c gray85",
"9 c #D9D9DD",
"0 c gray95",
"q c white",
"w c None",
/* pixels */
"wwwwwwwwwwwwwwwwwwwwwwwwwwwww",
"wwwwwwwwww.$$$.wwwwwwwwwwwwww",
"wwwwwwwww.$---$.wwwwwwwwwwwww",
"wwwwwwww.........wwwwwwwwwwww",
"wwwwww..$$-----$$..wwwwwwwwww",
"wwwww.$-3-------3-$.wwwwwwwww",
"wwww.$---3333333---$.wwwwwwww",
"www.$------333------$.wwwwwww",
"www.$-$$--$---$--$$-$.wwwwwww",
"ww.$.$--$-$$-$$-$--$.$.wwwwww",
"ww..$--$111111111$--$..wwwwww",
"ww..--$11111111111$--..wwwwww",
"ww.$--=11111111111=--$.wwwwww",
"ww.$3-=%%%11111%%%=-3$.wwwwww",
"ww.$3-%8 9111119 8%-3$.wwwwww",
"ww.$--%0 4111114 0%--$.wwwwww",
"ww.$--=q++11111++q=--$.wwwwww",
"www.$-&=<<11111<<=&-$.wwwwwww",
"www.$-o&=1111111=&o-$.wwwwwww",
"wwwo.$5X#&=====&#X5$.owwwwwww",
"wwo:7.5:XXXXXXXXX:7.7:owwwwww",
"wwo&55:o:57===75:o7=1*owwwwww",
"w%;::#o:7975:5797:X&=#Xwwwwww",
"w%;;oXo*575:::575*X=1:owwwwww",
"ww%%wwO;*::***::*;%675owwwwww",
"wwwwwO@>;;;:::;;;@@662owwwwww",
"wwwwwO>,,@:797:@>>@22;%wwwwww",
"wwwwwwO,,>,575,>,>O%%%wwwwwww",
"wwwwwwwo5>,,,,>@:owwwwwwwwwww",
"wwwwwwwo997oO%;;;%wwwwwwwwwww",
"wwwwwww%;22;ww%%%wwwwwwwwwwww",
"wwwwwww%266;wwwwwwwwwwwwwwwww",
"wwwwwwwwwwwwwwwwwwwwwwwwwwwww"
};
