/* XPM */
static char *result[] = {
/* columns rows colors chars-per-pixel */
"40 34 207 2 ",
"   c black",
".  c #010101",
"X  c #020202",
"o  c gray1",
"O  c #040404",
"+  c gray2",
"@  c #060606",
"#  c #070707",
"$  c gray3",
"%  c #090909",
"&  c gray4",
"*  c #0B0B0B",
"=  c #0C0C0C",
"-  c #0E0E0E",
";  c gray6",
":  c #101010",
">  c #111111",
",  c #131313",
"<  c #161616",
"1  c gray9",
"2  c #181818",
"3  c #191919",
"4  c #1B1B1B",
"5  c gray11",
"6  c #1D1D1D",
"7  c #1E1E1E",
"8  c gray12",
"9  c gray13",
"0  c #222222",
"q  c #232323",
"w  c gray14",
"e  c #252525",
"r  c gray15",
"t  c #272727",
"y  c #282828",
"u  c gray16",
"i  c #2A2A2A",
"p  c gray17",
"a  c #2C2C2C",
"s  c #2D2D2D",
"d  c gray18",
"f  c #2F2F2F",
"g  c gray19",
"h  c #313131",
"j  c #323232",
"k  c gray20",
"l  c #353535",
"z  c gray21",
"x  c #373737",
"c  c gray22",
"v  c #3A3A3A",
"b  c gray23",
"n  c #3C3C3C",
"m  c gray24",
"M  c #3E3E3E",
"N  c #3F3F3F",
"B  c gray25",
"V  c gray26",
"C  c #434343",
"Z  c #444444",
"A  c #464646",
"S  c gray28",
"D  c #484848",
"F  c #494949",
"G  c gray29",
"H  c #4B4B4B",
"J  c #4C4C4C",
"K  c gray30",
"L  c #4E4E4E",
"P  c gray31",
"I  c #505050",
"U  c #515151",
"Y  c gray32",
"T  c #535353",
"R  c #555555",
"E  c #5A5A5A",
"W  c #5B5B5B",
"Q  c gray36",
"!  c #5F5F5F",
"~  c #606060",
"^  c gray38",
"/  c #626262",
"(  c gray40",
")  c #676767",
"_  c #6A6A6A",
"`  c gray43",
"'  c gray44",
"]  c #717171",
"[  c #727272",
"{  c gray45",
"}  c #747474",
"|  c gray46",
" . c #767676",
".. c #777777",
"X. c #797979",
"o. c gray48",
"O. c #7B7B7B",
"+. c gray49",
"@. c gray50",
"#. c #808080",
"$. c #818181",
"%. c gray51",
"&. c gray52",
"*. c #868686",
"=. c gray53",
"-. c #888888",
";. c #8B8B8B",
":. c #8D8D8D",
">. c #8E8E8E",
",. c gray57",
"<. c #929292",
"1. c #939393",
"2. c gray58",
"3. c #959595",
"4. c #989898",
"5. c gray60",
"6. c #9A9A9A",
"7. c #9B9B9B",
"8. c gray61",
"9. c gray62",
"0. c #9F9F9F",
"q. c #A0A0A0",
"w. c gray63",
"e. c #A2A2A2",
"r. c #A4A4A4",
"t. c #A5A5A5",
"y. c gray65",
"u. c gray66",
"i. c #A9A9A9",
"p. c #AAAAAA",
"a. c #ACACAC",
"s. c #AEAEAE",
"d. c #AFAFAF",
"f. c gray69",
"g. c #B1B1B1",
"h. c #B2B2B2",
"j. c gray70",
"k. c #B4B4B4",
"l. c #B6B6B6",
"z. c #B7B7B7",
"x. c gray72",
"c. c #B9B9B9",
"v. c gray73",
"b. c #BBBBBB",
"n. c #BCBCBC",
"m. c gray74",
"M. c gray",
"N. c #C0C0C0",
"B. c #C3C3C3",
"V. c gray77",
"C. c #C5C5C5",
"Z. c gray78",
"A. c #C8C8C8",
"S. c gray79",
"D. c #CACACA",
"F. c #CBCBCB",
"G. c gray80",
"H. c #CDCDCD",
"J. c #CECECE",
"K. c gray81",
"L. c #D0D0D0",
"P. c gray82",
"I. c #D2D2D2",
"U. c LightGray",
"Y. c #D5D5D5",
"T. c gray84",
"R. c #D7D7D7",
"E. c #D8D8D8",
"W. c gray85",
"Q. c #DADADA",
"!. c gray86",
"~. c #DDDDDD",
"^. c gray87",
"/. c #DFDFDF",
"(. c gray88",
"). c #E1E1E1",
"_. c #E2E2E2",
"`. c gray89",
"'. c #E4E4E4",
"]. c gray90",
"[. c #E6E6E6",
"{. c #E7E7E7",
"}. c gray91",
"|. c #E9E9E9",
" X c #EAEAEA",
".X c gray92",
"XX c #ECECEC",
"oX c gray93",
"OX c #EEEEEE",
"+X c #EFEFEF",
"@X c gray94",
"#X c #F1F1F1",
"$X c gray95",
"%X c #F3F3F3",
"&X c #F4F4F4",
"*X c gray96",
"=X c #F6F6F6",
"-X c gray97",
";X c #F8F8F8",
":X c #F9F9F9",
">X c gray98",
",X c #FBFBFB",
"<X c gray99",
"1X c #FDFDFD",
"2X c #FEFEFE",
"3X c white",
"4X c None",
/* pixels */
"4X4X4X    4X4X4X4X4X4X4X4X4X4X4X4X4X4X4X4X4X4X4X4X4X4X4X4X4X4X4X4X4X4X4X4X4X4X4X",
"4X4X  b Q & 4X4X4X4X4X4X4X4X4X4X4X4X4X4X4X  # -   4X4X4X4X4X4X4X4X4X4X4X4X4X4X4X",
"4X4X+ y.1Xq.9   4X4X4X4X4X4X4X4X4X4X4X  , W d.j.6 4X4X4X4X4X4X4X4X4X4X4X4X4X4X4X",
"4X4Xi [.3X3XD.x   4X4X4X4X4X4X4X4X4X. S N.,X3X3X[   4X4X4X4X4X4X4X4X4X4X4X4X4X4X",
"4X  ( 3X3X3X3XT.g     . $ & #       ( OX3X3X3X3XA., 4X4X4X4X4X4X4X4X4X4X4X4X4X4X",
"4Xo r.3X3X3X3X=XJ y ` 0.l.n.j.1.I : &.3X3X3X3X3X%Xm 4X4X4X4X4X4X4X4X4X4X4X4X4X4X",
"4X1 U.3X3X3X3X>XA.'.3X3X3X3X3X3X:Xb.c.3X3X3X3X3X3X_   4X4X4X4X4X4X4X4X4X4X4X4X4X",
"4Xk OX3X3X3X3X3X3X3X3X3X3X3X3X3X3X3X3X3X3X3X3X3X3X>.  4X4X4X4X4X4X4X4X4X4X4X4X4X",
"  L ,X3X3X3X3X3X3X3X3X3X3X3X3X3X3X3X3X3X3X3X3X3X3Xt.= x q +   4X4X4X4X4X4X4X4X4X",
"  ( 3X3X3X3X3X3X3X3X3X3X3X3X3X3X3X3X3X3X3X3X3X3X3Xa.s (._.t.D $   4X4X4X4X4X4X4X",
"   .3X3X3X3X3X3X3X3X3X3X3X3X3X3X3X3X3X3X3X3X3X3X3Xu.j OX3X3X&Xr.s   4X4X4X4X4X4X",
"  @.3X3X3X3X3X3X3X3X3X3X3X3X3X3X3X3X3X3X3X3X3X3X3X2.b &X3X3X3X3X!.H   4X4X4X4X4X",
"  #.3X3X3X3X3X3X3X3X3X3X3X3X3X3X3X3X3X3X3X3X3X3X3X{ T 1X3X3X3X3X3X'.C   4X4X4X4X",
"  ..3X3X3X3X3X3X3X3X3X3X3X3X3X3X3X3X3X3X3X3X3X3X;XA +.3X3X3X3X3X3X3XK.0 4X4X4X4X",
"  / 3X3X3X3X3X3X3X3X3X3X3X3X3X3X3X3X3X3X3X3X3X3XY.0 x.3X3X3X3X3X3X3X3X3.O 4X4X4X",
"4XM &X3X3X>XXX3X3X3X3X3X3X3X3X3X3X3X3X3X3X3X3X3X&.x OX3X3X3X3X3X3X3X3X+XN   4X4X",
"4X< L.3X3XoXO.P.U.oX3X3X3X3X3X3X2X=X3X3X3X3X3X`.s <.3XoXZ.v.v.M.I.=X3X3Xw.O 4X4X",
"4X  %.3X3X3Xn.{ @.'.3X3X3XM.g.L.-.l.3X3X3X3X3X=.d z.O.l 7 p l g r Q .X3X[.p 4X4X",
"4X4Xy ^.3X3X3X,X<X3X3X3X3X(.:.o.y.&X3X3X3X3XW.q 8 e V ,.D.'..X{.n.t M.3X3X/   4X",
"4X  . ( -X3X3X3X3Xj.;.c.,X3X3X2X3X3X3X3X3X%XQ   q e.&X3X3X3X3X3X@Xl h.3X3X<.  4X",
"4X; X.w } %X3X3X3Xv.d 4.2X3X3X3X3X3X3X3X-X|   g D.3X3X3X3X3X3X3XR.r B.3X3Xk.# 4X",
"4Xb $Xj.e T U.3X3X<X}.2X3X3X3X3X3X3X3X$X .X w F.3X3X3X3X3X3X3X3X@.z XX3X3XS.: 4X",
"  { 3X3XH.F w #.Q.2X3X3X3X3X3X3X3X;XM.J * @ e.3X3X3X3X3X3X3X3Xv.8 q.3X3X3XY.2 4X",
". 9.3X3X3X$X8.x e ! r.K.^._./.H.4.G 5 E R m #X3X3X3X3X3X3X3Xm.u ] :X3X3X3XE.4 4X",
"$ l.3X3X3X3X3XoXp.Q s w t y r 0 f ) M.$XH $.3X3X3X3X3X3X@X=.7 ` %X3X3X3X3XV.- 4X",
"% b.3X3X3X3X3X3X3X1X}.J.M.x.v.G. X3X3XoXj u.3X3X3X3X3XJ.F t 6.;X3X3X3X3X1X`     ",
"O p.3X3X3X3X3X3X3X3X3X3X3X3X3X3X3X3X3X{.a k.3X3X3X3XC.e > V.3X3X3X3X3X3X7.y ~ + ",
"  @.3X3X3X3X3X3X3X3X3X3X3X3X3X3X3X3X3XXXh y.3X3X3X&XK L y ' .X3X3X<XW. .8 9.m.& ",
"  m #X3X3X3X3X3X3X3X3X3X3X3X3X3X3X3X3X>XK ] 3X3X3X>XF.$Xz.s z ` [ U e b f.3Xr.o ",
"4X$ y.3X3X3X3X3X3X3X3X3X3X3X3X3X3X3X3X3X6.a ~.3X3X3X3X3X3X^.*.Y U ] f.OX3X+XF   ",
"4X4Xy 0.C.Y.).|.OX%X=X;X:X,X,X,X>X=X+X].B.r P `.3X3X3X3X3X3X3X1X<X3X3X3X|.^ X 4X",
"4X4X  o - 2 0 i j v B Z F K P P G B j w 3 $   c d.$X3X3X3X3X3X3X3X3X*Xx.B   4X4X",
"4X4X4X4X4X4X4X4X4X4X4X4X4X      4X4X4X4X4X4X4X  * n { 5.s.k.j.i.3.[ B ;   4X4X4X",
"4X4X4X4X4X4X4X4X4X4X4X4X4X4X4X4X4X4X4X4X4X4X4X4X4X      + @ @ o       4X4X4X4X4X"
};
