/* XPM */
static char *result[] = {
/* columns rows colors chars-per-pixel */
"40 40 106 2 ",
"   c #010101",
".  c #0B0B0B",
"X  c #131313",
"o  c #1C1C1C",
"O  c #242424",
"+  c gray17",
"@  c #343434",
"#  c #3C3C3C",
"$  c #424242",
"%  c #4C4C4C",
"&  c #525252",
"*  c gray36",
"=  c #75675F",
"-  c #646464",
";  c #6D6D6D",
":  c #737373",
">  c #7D7D7D",
",  c #857464",
"<  c #877A6F",
"1  c #857A75",
"2  c #8A7C74",
"3  c #867D7A",
"4  c #87807D",
"5  c #8C827D",
"6  c #91837B",
"7  c #95897F",
"8  c #848484",
"9  c #8D8582",
"0  c #8E8883",
"q  c #8D8A8A",
"w  c #938680",
"e  c #938A85",
"r  c #998F87",
"t  c #958D8A",
"y  c #97908D",
"u  c #9A928C",
"i  c #948F90",
"p  c #949293",
"a  c #9C9492",
"s  c #9D9895",
"d  c #9B9699",
"f  c #9C9B9B",
"g  c #A89887",
"h  c #A8938F",
"j  c #A39693",
"k  c #A29A95",
"l  c #AA9A93",
"z  c #A39B9A",
"x  c #AB9E9D",
"c  c #ABA29F",
"v  c #B2A396",
"b  c #B4A49C",
"n  c #A39FA0",
"m  c #A4A3A4",
"M  c #ADA2A2",
"N  c #ABABAB",
"B  c #B4A4A3",
"V  c #B9A7A5",
"C  c #B5AAA6",
"Z  c #BBACA4",
"A  c #B3A7A9",
"S  c #B5ABAB",
"D  c #BAADAD",
"F  c #BEB2A4",
"G  c #B5B0AF",
"H  c #BDB2AD",
"J  c #B5AEB0",
"K  c #BAAEB1",
"L  c #B5B3B3",
"P  c #BCB3B4",
"I  c #BEB8B7",
"U  c #BEB6B9",
"Y  c #BDBABB",
"T  c #C1B2A6",
"R  c #C1B4AD",
"E  c #C8BAAE",
"W  c #C1B5B4",
"Q  c #C4BBB6",
"!  c #C9BCB5",
"~  c #C1B6B9",
"^  c #C3BBBC",
"/  c #C9BEBB",
"(  c #C6C0BD",
")  c #CBC3BD",
"_  c #D0C6BD",
"`  c #C5BEC1",
"'  c #C8BFC1",
"]  c #C5C2C2",
"[  c #CAC3C4",
"{  c #CFC9C2",
"}  c #CCC6C9",
"|  c #CCCBCB",
" . c #D1C6C1",
".. c #D3CBC5",
"X. c #D4CDCC",
"o. c #D7D0CB",
"O. c #D9D2CD",
"+. c #D4CFD1",
"@. c #D4D3D4",
"#. c #DAD5D4",
"$. c #DFD9D4",
"%. c #DCDBDC",
"&. c #E4E3E4",
"*. c #ECECEC",
"=. c #F4F4F4",
"-. c #FFFFFF",
/* pixels */
"E X.X.X.Z X.#.O.X.l T ..X...) o... .o.F F  ./ ) #.O.+.+.#.%.%.#.@.+.%.&.' +.' V ",
" .} P ~ ~ ^ ~ P ` a ) [ ^ ( ] } } [ ` c ] @.~ ` W P ~ J ~ ' ` ~ W B W ' ~ ' ` i ",
"..P n U ~ ` P D [ e / } D U L ( ( G L s / | ` K D D A J ~ K ~ ~ W M A ` ' W ' d ",
"! P V     ` ~ ~ ~ u ) } Y / [ ( P I [ s ' | Y Y ` ^ ` ^ ~ W W n A U U ` ` K ~ i ",
"R ~   # * . A P D t / | Y ( ] ^ G ^ [ s )   . .   ` U K K J h n U ` U ` ` U [ p ",
"/ Y   N -.f O   U e H ` Y ( ] U ^ I [   X * N L o B ` J ~ ` W ~ ` ` ` ` Y ` ` d ",
"_ ' + &.-.-.} @   9 I ` ^ / U Q G L   % Y -.-.-.:   ` U A K ' ` B U } ` ` ` / d ",
"..  - -.-.-.-.@.+       . . .       - *.-.-.-.-.} X ` ' ` ` ~ ~ J ` U ` P Y } m ",
"X.  m -.-.-.-.=.% O ; n L Y L p % X 8 -.-.-.-.-.=.# ^ Y Y ~ ` ~ Y Y ^ L S U ( d ",
"O.X @.-.-.-.-.-.} &.-.-.-.-.-.-.-.Y Y -.-.-.-.-.-.;   l f s k a s k s 9 t 5 5 1 ",
"X.@ *.-.-.-.-.-.-.-.-.-.-.-.-.-.-.-.-.-.-.-.-.-.-.q   #.O.$.#.#.X.O.{ ..[ ! ) v ",
"  % -.-.-.-.-.-.-.-.-.-.-.-.-.-.-.-.-.-.-.-.-.-.-.m . @ O     ^ Y ( ( ) / U ^ 7 ",
"  - -.-.-.-.-.-.-.-.-.-.-.-.-.-.-.-.-.-.-.-.-.-.-.N + &.&.m %     } ( ^ ( / ] u ",
"  : -.-.-.-.-.-.-.-.-.-.-.-.-.-.-.-.-.-.-.-.-.-.-.m @ *.-.-.=.m +   U ^ ^ ^ X.s ",
"  > -.-.-.-.-.-.-.-.-.-.-.-.-.-.-.-.-.-.-.-.-.-.-.p # =.-.-.-.-.#.%   I ^ ( | s ",
"  8 -.-.-.-.-.-.-.-.-.-.-.-.-.-.-.-.-.-.-.-.-.-.-.: & -.-.-.-.-.-.&.$   H (  .u ",
"  : -.-.-.-.-.-.-.-.-.-.-.-.-.-.-.-.-.-.-.-.-.-.-.$ > -.-.-.-.-.-.-.| O D W ] u ",
"  - -.-.-.-.-.-.-.-.-.-.-.-.-.-.-.-.-.-.-.-.-.-.@.O Y -.-.-.-.-.-.-.-.p   L Q r ",
"{ # =.-.-.=.*.-.-.-.-.-.-.-.-.-.-.-.-.-.-.-.-.-.8 @ *.-.-.-.-.-.-.-.-.*.$   Z < ",
"v X +.-.-.=.> | @.*.-.-.-.-.-.-.-.=.-.-.-.-.-.&.+ p -.*.] Y Y Y @.=.-.-.m   3 < ",
"E   8 -.-.-.Y : > &.-.-.-.Y L +.q L -.-.-.-.-.8 + L > @ o + @ @ O * *.-.&.+ ^ C ",
"O.#.+ %.-.-.-.-.-.-.-.-.-.%.q > m =.-.-.-.-.#.O O O $ p | &.*.&.Y + Y -.-.-   z ",
" .    - =.-.-.-.-.L q Y -.-.-.-.-.-.-.-.-.=.*   O n =.-.-.-.-.-.=.@ L -.-.p   p ",
"... > O : =.-.-.-.Y + f -.-.-.-.-.-.-.-.=.:   @ | -.-.-.-.-.-.-.@.O ] -.-.L . 0 ",
" .# =.L O & @.-.-.=.*.-.-.-.-.-.-.-.-.=.:   O | -.-.-.-.-.-.-.-.> # *.-.-.| . y ",
"  : -.-.| % O > %.-.-.-.-.-.-.-.-.=.Y % .   n -.-.-.-.-.-.-.-.Y o n -.-.-.@.o f ",
"  f -.-.-.=.f # O - m +.%.&.%.| d % o * * # =.-.-.-.-.-.-.-.Y + : =.-.-.-.%.o d ",
"  Y -.-.-.-.-.*.N * + O + O + o @ - Y =.% > -.-.-.-.-.-.=.8 o ; =.-.-.-.-.] . d ",
". Y -.-.-.-.-.-.-.-.&.| Y Y Y } &.-.-.*.@ N -.-.-.-.-.+.% + f =.-.-.-.-.-.;     ",
"  N -.-.-.-.-.-.-.-.-.-.-.-.-.-.-.-.-.&.+ L -.-.-.-.] O . ] -.-.-.-.-.-.f + -   ",
"  > -.-.-.-.-.-.-.-.-.-.-.-.-.-.-.-.-.*.@ m -.-.-.=.% % + : *.-.-.-.%.: o f Y . ",
"  # =.-.-.-.-.-.-.-.-.-.-.-.-.-.-.-.-.-.% : -.-.-.=.| =.L + @ ; : % O # L -.m   ",
" .. m -.-.-.-.-.-.-.-.-.-.-.-.-.-.-.-.-.d + %.-.-.-.-.-.-.%.8 & & ; L *.-.=.%   ",
"o.} + f ] @.&.&.*.=.=.=.-.-.-.=.-.=.*.&.] O & &.-.-.-.-.-.-.-.-.-.-.-.-.&.-   t ",
" .[     . o O + @ # # $ % % % % % # @ O o .   @ N =.-.-.-.-.-.-.-.-.=.Y #   ` e ",
") ^ U L W P P ^ Q ~ U m x       U U I 4 H ] L   . # : d N L L N p : $ .   } ` t ",
") ] G W ^ ~ ] ^ ^ Y ) U S U P P L U ` e T } ^ ^ ]         .           [ [ Y ^ a ",
" ./ G ^ ( ~ ~ ^ ^ P P P ^ L S D P U ~ s Q [ ^ ~ ^ ^ ^ [ ` e ) @.Y P Y [ W P ~ a ",
") ] U U ^ S ~ ` S M Y ` ] ` ( A P [ } z ! X.` [ ^ Q ` Y A 4 H ] L h S Y K S ] a ",
"l u t 5 u 5 w j 6 5 t e q p t 3 1 q q = b d 3 9 4 u e 4 = , g 7 5 2 e u t 6 y 5 "
};
