/* XPM */
static char *result[] = {
/* columns rows colors chars-per-pixel */
"40 40 98 2 ",
"   c #75675F",
".  c #857464",
"X  c #877A6F",
"o  c #807670",
"O  c #857A75",
"+  c #8A7C74",
"@  c #867D7A",
"#  c #897F7C",
"$  c #87807D",
"%  c #8C827D",
"&  c #91837B",
"*  c #95897F",
"=  c #8D8582",
"-  c #8E8883",
";  c #8E8989",
":  c #938680",
">  c #938A85",
",  c #998F87",
"<  c #958D8A",
"1  c #998F8A",
"2  c #9B9087",
"3  c #97908D",
"4  c #9A928C",
"5  c #948F90",
"6  c #969192",
"7  c #9C9492",
"8  c #9D9895",
"9  c #9B9699",
"0  c #9E9A9B",
"q  c #A89586",
"w  c #A89887",
"e  c #A1958F",
"r  c #A8938F",
"t  c #A4998F",
"y  c #A39693",
"u  c #A89796",
"i  c #A29A95",
"p  c #AA9A93",
"a  c #A39B9A",
"s  c #AB9E9D",
"d  c #B29D96",
"f  c #ABA29F",
"g  c #B2A396",
"h  c #B4A49C",
"j  c #B9AC9E",
"k  c #A39FA0",
"l  c #A4A0A1",
"z  c #ADA2A2",
"x  c #AFA7AA",
"c  c #B4A4A3",
"v  c #B9A7A5",
"b  c #B5AAA6",
"n  c #BBACA4",
"m  c #B3A7A9",
"M  c #B5ABAB",
"N  c #BAADAD",
"B  c #BEB2A4",
"V  c #B5B0AF",
"C  c #BDB2AD",
"Z  c #B5AEB0",
"A  c #BAAEB1",
"S  c #B7B2B2",
"D  c #BCB3B4",
"F  c #BEB8B7",
"G  c #BEB6B9",
"H  c #BEB9BA",
"J  c #C1B2A6",
"K  c #CAB6A7",
"L  c #C1B4AD",
"P  c #C5BAAB",
"I  c #C8BAAE",
"U  c #C1B5B4",
"Y  c #C4BBB6",
"T  c #C9BCB5",
"R  c #C1B6B9",
"E  c #C3BBBC",
"W  c #C9BEBB",
"Q  c #C6C0BD",
"!  c #CBC3BD",
"~  c #D0C6BD",
"^  c #C5BEC1",
"/  c #C8BFC1",
"(  c #C6C1C2",
")  c #CAC3C4",
"_  c #CFC9C2",
"`  c #CCC6C9",
"'  c #CEC9CB",
"]  c #D1C6C1",
"[  c #D3CBC5",
"{  c #D4CDCC",
"}  c #D7D0CB",
"|  c #D9D2CD",
" . c #D4CFD1",
".. c #D5D1D4",
"X. c #DAD5D4",
"o. c #DFD9D4",
"O. c #DDDADC",
"+. c #E2E0E2",
/* pixels */
"I { { { n { X.| { p J [ { [ ! } [ _ } B B ] W ! X.|  ...X.O.O.X... .O.+./  ./ v ",
"] ` D R R E R D ^ 7 ! ) E Q ( ` ` ) ^ f ( ..R ^ U D R Z R / ^ G U c U / R / ^ 6 ",
"[ D k G R ^ D N ) > Q ` N R S Q Q V S 8 Q ' ^ A N N m Z R Z R R U z m ^ / U / 9 ",
"T D v R E ^ R R R 4 ! ` F Q ) Q S F ) 8 ( ' H H ^ E ^ E R U U s m G G ^ ^ A R 5 ",
"L R G G R A m D A < W ' H Q ( Q V E ) 8 ! ' H ^ ^ ^ G A A Z r z G ^ G ^ ^ H ) 6 ",
"W H G D G R A R D > C ^ H Q ( G E F ) 3 ! ) A G u c ^ Z R ^ A R ^ ^ ^ ^ H ^ ^ 9 ",
"~ / D D R R ) G D = F ( H ( R Y V S ' 3 Q R G H k U ^ G m A ^ ^ c R ` ^ ^ ^ ^ 9 ",
"[ ) M m z G M G t O C C F H b D F Q _ 3 Q Q E ) ^ ^ ^ / ^ ^ G R Z ^ H ^ S H ` k ",
"{ / R D U R G R U & h n F E c m ) H ( 4 ! ^ S ( m x R H H R ( G H H H S M G ^ 9 ",
"| ) R A D N G A R 1 L E S S C ! E F ( 3 t 8 3 > 7 u y p 0 8 i 7 8 i 8 - < = % O ",
"{ ( R R m G R ^ R > U ) S F E U Q ) ( 3 g } Q ~  .X.o.X.} o.X.X.} | _ [ ) T ! g ",
"! ) D D E G R M A 3 L E b G D C H Q ' 4 Q X.E Q ) ) ] / E Q ` E H Q Q ! E U Q * ",
"[ ' D G G Z ^ m R 1 J ^ S N Y F E E ` 3 Q _ Q Q E _ Q E ) ) ! Q E ( Q E Q Q ( 4 ",
"[ E G D G R ^ A R = L / m C E E Q ^ ) - Q ) b Q Q Q Q E D E Y ) ! D R E E E { 8 ",
"] E N A E R D N R ; ) ` h J R F Q H F % ! ` ) C U E ) Q C D E C ^ ) Y F E Q ' 8 ",
"[ E M D R R R d L y T ` Y v D m Q ) B % T ) V b V Q Q ) ( Q E S U J ( D C Q ] 4 ",
"[ ( R ( ^ ^ G U E 4 C ( E N b M F Q ( 3 Y ' Y U H D Y D Q ` Q E n N J b N U ( 4 ",
"U R R ^ R R A E ) 7 Q ' F R h d Q H Q - Q ' S Y E Y Y D ! Q ) Q F H D Y U V Y , ",
"] ) R R ^ a c G ^ 3 _ X.G E ) m ) ' R = ! _ b V Q _ D D E Q ) H H H E Q G E n X ",
"g = = 1 3 > , 4 < + g 8 % - > @ % - - O g 8 4 4 i 4 4 4 8 4 2 , * & , 4 % , $ X ",
"P ! Q ! { o.X.{ Q W ! ! E b T L Q B n p n } [ { [ [ } { } i J ~ C ! T U Q C Y b ",
"| X.^ ) ` ) G ^ Q ^ { ( ) / E ^ ) D W > T E ( ( ^ H ( m ! a ! _ Y ' ^ H ` ` { k ",
"] ` R ( R N U E E / E R M A G G ( G R < ! D D ! E D G n Y 8 Y ' N E E ( ( H D 6 ",
"[ ` E R R G G / R E R ( A z A E ) R ` 7 ! | G ` ) ! ! G G i Q ..M S ( H ) Q D = ",
"] ^ E ^ ) ) ` E R / A A ` R G N ^ ^ { i ! ' E ^ D a E F U 3 Y ` H H R ( ` ` ` 3 ",
"_ ' / D R R ^ d v A E G A R ` / E ^ ^ 1 T { ( ! s u D G ` 7 Y W ^ ) ) ) ) ^ H 0 ",
"P ` N N / E A s u N U N U A ^ ^ R M R 3 ! ..) ` G E U N ) 0 _ { ^ ( ( ) ^ H ) 0 ",
"! R D W G E E v v / E c A U E / G v ) 4 ! ..D M D U E Y ) i _ ` H ( ( D ^ H ` 9 ",
"{ ) D R ^ ^ G A R ) / m A ^ / ( E ' ' 9 C U E R E Q H E ` i Q ' H ( H D R N ( 7 ",
"j a 1 i y < < 1 1 3 < # @ = > - # < < + K Q Y D H F ( ( ` i C  .) ` ( ( ) M l < ",
"I [ T ] ! ! Y W ! T ! E U Y T T W Y E q ~ ' ( Q ( D Q ( ) a ( ..( ) ` ) G H E 7 ",
"{ ( G ( ( R G R ^ E W ` ) ) ` ) ` `  .1 C ) E E G E ( Q ) 8 _ ..( H R ( G ( ' 9 ",
"] E D H E F R G s h U D G D G G F F ) 3 C ) E ) x S Q H ) , Y { G ^ D H H ( ` a ",
"} ` F ( E V D E F m R ) C M R D E R ) 3 Y { S E Q S G G ( 4 ] ) A R R H G ^ ( 3 ",
"[ ) E E R E V S D x N f a C E D D m R , Y E M E E ) E U ( y Q  .( ^ ` ) ( ` ^ > ",
"! E D S U D D E Y R D l s N m E F G H $ C ( S R E ( Q ) ` 8 D ( H H ` ( ^ ` ( < ",
"! ( V U E R ( E E H ! G M F D D S H ^ > J ' E E ( Y C D U 8 L ( D H ) ) ) H H 7 ",
"] W V E Q R R E H D D D E S M N D F R 8 Y ) E R E E E ) ( > ! ..H D H ) G D R 7 ",
"! ( G G E M R ^ M z H ( ( ^ ( m D ( ` a T { ^ ) R E ^ F m $ C ( S r M H A b ( 7 ",
"p 3 < % 4 % : y & % 3 ; ; 6 < @ O ; ;   h 9 @ = % 4 > $   . w * % + > 4 3 & 3 % "
};
